<svg width="319" height="150" viewBox="0 0 319 150" fill="none" xmlns="http://www.w3.org/2000/svg">
<g clip-path="url(#clip0_550_2261)">
<rect width="319" height="150" fill="#48C1FA"/>
<path d="M303.738 48.8801L292.899 48.9234C290.433 44.7586 285.889 41.9785 280.675 42.0001C272.941 42.0326 266.634 48.2094 266.375 55.8899L284.202 55.8142L294.857 55.7709L310.813 55.706C310.694 51.909 307.568 48.8585 303.738 48.8801Z" fill="url(#paint0_linear_550_2261)"/>
<path opacity="0.51" d="M317.487 70C307.502 70 297.918 73.97 290.854 81.0339L277.018 94.8696C271.35 100.538 263.648 103.729 255.632 103.729H247.962C231.076 103.729 214.893 110.436 202.951 122.379L201.869 123.46L200.787 122.379C188.844 110.436 172.661 103.729 155.775 103.729H148.105C137.082 103.729 127.098 110.241 122.663 120.334L109 151.424H173.895H229.843H391.695L343.081 83.1866C337.186 74.9112 327.655 70 317.487 70Z" fill="#9DEFB6"/>
<path d="M266.099 150.118C268.846 133.042 257.229 116.972 240.153 114.225C223.077 111.479 207.007 123.095 204.261 140.171C201.514 157.248 213.131 173.317 230.207 176.064C247.283 178.81 263.352 167.194 266.099 150.118Z" fill="#FFDA8C"/>
<path d="M315.291 116.732C311.829 116.732 308.584 117.64 305.771 119.22C303.208 120.518 300.947 122.324 299.14 124.531C296.263 122.13 292.563 120.691 288.528 120.691C282.535 120.691 277.289 123.871 274.368 128.631C272.507 127.095 270.138 126.175 267.542 126.175C261.83 126.175 257.168 130.621 256.811 136.247H271.956H278.262H294.521H295.787C295.787 147.021 304.516 155.751 315.291 155.751C326.065 155.751 334.795 147.021 334.795 136.247C334.784 125.461 326.054 116.732 315.291 116.732Z" fill="url(#paint1_linear_550_2261)"/>
<path d="M198.829 129.778C196.968 129.778 195.216 130.243 193.669 131.043C190.618 124.423 183.944 119.815 176.177 119.815C173.159 119.815 170.303 120.529 167.761 121.773C167.328 120.464 166.787 119.209 166.16 118.008C161.66 108.229 151.783 101.436 140.317 101.436C124.61 101.436 111.877 114.168 111.877 129.875C111.877 145.582 124.61 158.315 140.317 158.315C148.138 158.315 155.223 155.156 160.362 150.039C163.834 155.048 169.611 158.347 176.177 158.347C182.797 158.347 188.639 155.004 192.1 149.909C193.972 151.316 196.298 152.17 198.818 152.17C204.995 152.17 210.014 147.162 210.014 140.974C210.014 134.786 205.006 129.778 198.829 129.778Z" fill="url(#paint2_linear_550_2261)"/>
<path d="M306.648 151.769C308.725 141.438 309.969 128.198 309.969 113.745C309.969 80.7518 303.468 54 295.452 54C287.436 54 280.935 80.7518 280.935 113.745C280.935 128.187 282.179 141.438 284.256 151.769H306.648Z" fill="#7A55B7"/>
<path d="M309.082 134.256C309.655 127.862 309.958 120.961 309.958 113.756C309.958 112.426 309.947 111.106 309.925 109.797H280.945C280.923 111.106 280.913 112.426 280.913 113.756C280.913 120.961 281.226 127.862 281.789 134.256H309.082Z" fill="#ECE7FF"/>
<path d="M295.105 54.0324V151.78H295.787V54.0324C295.679 54.0215 295.56 54.0107 295.441 54.0107C295.333 54.0107 295.214 54.0215 295.105 54.0324Z" fill="#4A1971"/>
<path d="M224.109 139.729C227.939 139.729 231.444 141.092 234.191 143.353C238.497 136.322 246.253 131.638 255.102 131.638C261.062 131.638 266.525 133.769 270.776 137.317C276.326 130.567 284.742 126.25 294.164 126.25C310.239 126.25 323.371 138.777 324.367 154.603H279.571H263.961H239.957H230.643H208.262C208.781 146.306 215.672 139.729 224.109 139.729Z" fill="#6E7015"/>
<path d="M224.109 139.729C227.939 139.729 231.444 141.092 234.191 143.353C238.497 136.322 246.253 131.638 255.102 131.638C261.062 131.638 266.525 133.769 270.776 137.317C276.326 130.567 284.742 126.25 294.164 126.25C310.239 126.25 323.371 138.777 324.367 154.603H279.571H263.961H239.957H230.643H208.262C208.781 146.306 215.672 139.729 224.109 139.729Z" fill="url(#paint3_linear_550_2261)"/>
</g>
<defs>
<linearGradient id="paint0_linear_550_2261" x1="288.341" y1="31.6889" x2="288.822" y2="76.4014" gradientUnits="userSpaceOnUse">
<stop stop-color="white"/>
<stop offset="1" stop-color="white" stop-opacity="0"/>
</linearGradient>
<linearGradient id="paint1_linear_550_2261" x1="295.623" y1="117.937" x2="296.313" y2="191.111" gradientUnits="userSpaceOnUse">
<stop stop-color="white"/>
<stop offset="1" stop-color="white" stop-opacity="0"/>
</linearGradient>
<linearGradient id="paint2_linear_550_2261" x1="160.643" y1="102.751" x2="161.657" y2="210.139" gradientUnits="userSpaceOnUse">
<stop stop-color="white"/>
<stop offset="1" stop-color="white" stop-opacity="0"/>
</linearGradient>
<linearGradient id="paint3_linear_550_2261" x1="266.308" y1="112.23" x2="266.308" y2="151.654" gradientUnits="userSpaceOnUse">
<stop offset="0.4372" stop-color="#FFF456" stop-opacity="0.53"/>
<stop offset="0.9596" stop-color="#FFF456" stop-opacity="0"/>
</linearGradient>
<clipPath id="clip0_550_2261">
<rect width="319" height="150" fill="white"/>
</clipPath>
</defs>
</svg>
