<svg width="319" height="150" viewBox="0 0 319 150" fill="none" xmlns="http://www.w3.org/2000/svg">
<g clip-path="url(#clip0_550_2305)">
<rect width="319" height="150" fill="#FFCD4D"/>
<path d="M160.698 69.1755L166.377 69.1974C167.668 67.02 170.053 65.5538 172.778 65.5648C176.826 65.5866 180.131 68.8253 180.273 72.8409L170.929 72.7971L165.349 72.7752L156.989 72.7424C157.055 70.762 158.685 69.1755 160.698 69.1755Z" fill="#F7F9ED"/>
<path d="M217.474 16.5892C216.818 11.2716 212.288 7.14666 206.795 7.14666C204.125 7.14666 201.686 8.1314 199.804 9.7398C196.86 4.12679 190.985 0.297241 184.201 0.297241C176.958 0.297241 170.732 4.67386 168.029 10.9324C167.635 10.8668 167.231 10.823 166.826 10.823C163.357 10.823 160.48 13.3067 159.856 16.5892H217.474V16.5892Z" fill="#F7F9ED"/>
<path d="M243.69 46.6579C240.582 50.2686 234.007 49.6887 234.007 49.6887C234.007 49.6887 232.453 43.266 235.56 39.6553C238.668 36.0446 245.244 36.6245 245.244 36.6245C245.244 36.6245 246.786 43.0472 243.69 46.6579Z" fill="#CC691E"/>
<path d="M219.377 143.709C215.066 145.723 209.3 142.506 209.3 142.506C209.3 142.506 210.515 136.007 214.826 133.993C219.137 131.98 224.903 135.197 224.903 135.197C224.903 135.197 223.688 141.696 219.377 143.709Z" fill="#FE9A4F"/>
<path d="M164.092 150.271L350.317 148.381L307.14 65.7189C306.382 64.2733 304.936 63.237 303.308 63.2109C302.385 63.1935 301.444 63.4634 300.626 64.0469L291.395 70.5958C290.184 71.4492 288.608 71.5624 287.293 70.8831L280.491 67.3736C278.959 66.5811 277.112 66.6856 275.684 67.6523L164.101 143.539V150.271H164.092Z" fill="#F2D88A"/>
<path d="M309.342 77.0924C302.114 77.0924 295.609 80.2101 291.107 85.174C287.005 89.1974 284.462 94.797 284.462 100.998C284.462 102.33 284.584 103.636 284.81 104.899C280.055 106.954 276.589 111.413 275.91 116.743C274.944 116.542 273.942 116.438 272.914 116.438C269.152 116.438 265.721 117.84 263.091 120.139C261.288 116.081 257.23 113.25 252.51 113.25C249.61 113.25 246.972 114.322 244.934 116.081C243.375 111.526 239.064 108.243 233.978 108.243C230.425 108.243 227.247 109.845 225.122 112.362C222.77 109.036 218.912 106.858 214.532 106.858C214.062 106.858 213.591 106.885 213.13 106.937C209.359 99.2471 201.46 93.9522 192.325 93.9522C187.692 93.9522 183.373 95.3195 179.75 97.6708C179.062 96.8348 178.33 96.051 177.547 95.3108C175.16 92.9246 172.243 91.0697 168.977 89.955C166.199 88.9187 163.195 88.3439 160.06 88.3439C146.004 88.3439 134.604 99.7435 134.604 113.799C134.604 127.855 146.004 139.254 160.06 139.254C166.121 139.254 171.686 137.129 176.057 133.594C180.238 137.722 185.977 140.282 192.325 140.282C199.449 140.282 205.823 137.06 210.073 132C211.467 132.514 212.964 132.801 214.532 132.801C218.912 132.801 222.779 130.624 225.122 127.297C227.247 129.814 230.425 131.417 233.978 131.417C236.878 131.417 239.517 130.345 241.555 128.586C243.114 133.141 247.424 136.424 252.51 136.424C254.644 136.424 256.647 135.832 258.362 134.822C259.904 141.44 265.834 146.378 272.923 146.378C280.543 146.378 286.822 140.674 287.754 133.306C288.721 133.507 289.722 133.611 290.75 133.611C296.445 133.611 301.392 130.424 303.917 125.73C305.667 126.122 307.479 126.34 309.351 126.34C322.945 126.34 333.97 115.314 333.97 101.72C333.962 88.1175 322.937 77.0924 309.342 77.0924Z" fill="#FE9A4F"/>
<path d="M309.342 77.0924C302.114 77.0924 295.609 80.2101 291.107 85.174C287.005 89.1974 284.462 94.797 284.462 100.998C284.462 102.33 284.584 103.636 284.81 104.899C280.055 106.954 276.589 111.413 275.91 116.743C274.944 116.542 273.942 116.438 272.914 116.438C269.152 116.438 265.721 117.84 263.091 120.139C261.288 116.081 257.23 113.25 252.51 113.25C249.61 113.25 246.972 114.322 244.934 116.081C243.375 111.526 239.064 108.243 233.978 108.243C230.425 108.243 227.247 109.845 225.122 112.362C222.77 109.036 218.912 106.858 214.532 106.858C214.062 106.858 213.591 106.885 213.13 106.937C209.359 99.2471 201.46 93.9522 192.325 93.9522C187.692 93.9522 183.373 95.3195 179.75 97.6708C179.062 96.8348 178.33 96.051 177.547 95.3108C175.16 92.9246 172.243 91.0697 168.977 89.955C166.199 88.9187 163.195 88.3439 160.06 88.3439C146.004 88.3439 134.604 99.7435 134.604 113.799C134.604 127.855 146.004 139.254 160.06 139.254C166.121 139.254 171.686 137.129 176.057 133.594C180.238 137.722 185.977 140.282 192.325 140.282C199.449 140.282 205.823 137.06 210.073 132C211.467 132.514 212.964 132.801 214.532 132.801C218.912 132.801 222.779 130.624 225.122 127.297C227.247 129.814 230.425 131.417 233.978 131.417C236.878 131.417 239.517 130.345 241.555 128.586C243.114 133.141 247.424 136.424 252.51 136.424C254.644 136.424 256.647 135.832 258.362 134.822C259.904 141.44 265.834 146.378 272.923 146.378C280.543 146.378 286.822 140.674 287.754 133.306C288.721 133.507 289.722 133.611 290.75 133.611C296.445 133.611 301.392 130.424 303.917 125.73C305.667 126.122 307.479 126.34 309.351 126.34C322.945 126.34 333.97 115.314 333.97 101.72C333.962 88.1175 322.937 77.0924 309.342 77.0924Z" fill="url(#paint0_linear_550_2305)"/>
<path d="M309.604 139.08L307.845 25.7555H297.812L297.403 51.9248L293.545 49.8609L277.783 32.3479L270.964 38.4875L287.806 57.2022L297.246 62.2358L296.053 139.08H309.604Z" fill="#9E4927"/>
<path opacity="0.61" d="M309.604 139.08L307.845 25.7555H297.812L297.403 51.9248L293.545 49.8609L277.783 32.3479L270.964 38.4875L287.806 57.2022L297.246 62.2358L296.053 139.08H309.604Z" fill="url(#paint1_linear_550_2305)"/>
<path d="M327.143 -0.474948C324.565 -1.1368 321.935 -1.10197 319.558 -0.509783C320.995 -1.22389 322.127 -2.3473 322.641 -3.77551C323.756 -6.86706 321.578 -10.1676 317.773 -11.143C317.111 -11.3084 316.449 -11.3955 315.787 -11.4129C316.998 -12.6234 317.947 -14.0516 318.53 -15.654C320.899 -22.2116 316.284 -29.2046 308.219 -31.2685C303.047 -32.601 297.717 -31.5646 293.929 -28.9259C293.066 -32.7142 289.722 -36.0147 284.915 -37.2513C278.419 -38.9234 271.626 -36.1976 269.266 -31.1379C265.765 -35.2832 260.035 -37.9916 253.538 -37.9916C242.87 -37.9916 234.214 -30.6938 234.214 -21.6978C234.214 -20.5744 234.344 -19.4771 234.606 -18.4234C234.327 -18.4408 234.057 -18.4582 233.778 -18.4582C225.784 -18.4582 219.305 -12.9892 219.305 -6.24875C219.305 -1.49385 222.536 2.60789 227.23 4.62829C222.466 7.18861 219.305 11.6735 219.305 16.7942C219.305 24.7626 226.968 31.2243 236.417 31.2243C238.725 31.2243 240.928 30.8325 242.94 30.1358C242.74 30.7367 242.618 31.3637 242.618 32.0168C242.618 35.7789 246.232 38.8269 250.69 38.8269C252.746 38.8269 254.618 38.1738 256.046 37.1026C254.461 39.0621 253.529 41.4308 253.529 43.9824C253.529 50.7229 260.009 56.1919 268.003 56.1919C275.998 56.1919 282.477 50.7229 282.477 43.9824C282.477 42.9722 282.311 41.9969 282.041 41.0563C285.743 40.5774 288.982 38.9314 291.203 36.554C293.572 37.9735 296.463 38.8269 299.589 38.8269C307.584 38.8269 314.063 33.3579 314.063 26.6175C314.063 25.137 313.732 23.7262 313.157 22.4112C314.786 21.4272 316.127 20.1209 317.033 18.5533C317.912 18.9888 318.861 19.3545 319.88 19.6158C326.699 21.3662 333.849 18.2921 335.852 12.7447C337.872 7.18861 333.971 1.27548 327.143 -0.474948Z" fill="#CC691E"/>
<path d="M327.143 -0.474948C324.565 -1.1368 321.935 -1.10197 319.558 -0.509783C320.995 -1.22389 322.127 -2.3473 322.641 -3.77551C323.756 -6.86706 321.578 -10.1676 317.773 -11.143C317.111 -11.3084 316.449 -11.3955 315.787 -11.4129C316.998 -12.6234 317.947 -14.0516 318.53 -15.654C320.899 -22.2116 316.284 -29.2046 308.219 -31.2685C303.047 -32.601 297.717 -31.5646 293.929 -28.9259C293.066 -32.7142 289.722 -36.0147 284.915 -37.2513C278.419 -38.9234 271.626 -36.1976 269.266 -31.1379C265.765 -35.2832 260.035 -37.9916 253.538 -37.9916C242.87 -37.9916 234.214 -30.6938 234.214 -21.6978C234.214 -20.5744 234.344 -19.4771 234.606 -18.4234C234.327 -18.4408 234.057 -18.4582 233.778 -18.4582C225.784 -18.4582 219.305 -12.9892 219.305 -6.24875C219.305 -1.49385 222.536 2.60789 227.23 4.62829C222.466 7.18861 219.305 11.6735 219.305 16.7942C219.305 24.7626 226.968 31.2243 236.417 31.2243C238.725 31.2243 240.928 30.8325 242.94 30.1358C242.74 30.7367 242.618 31.3637 242.618 32.0168C242.618 35.7789 246.232 38.8269 250.69 38.8269C252.746 38.8269 254.618 38.1738 256.046 37.1026C254.461 39.0621 253.529 41.4308 253.529 43.9824C253.529 50.7229 260.009 56.1919 268.003 56.1919C275.998 56.1919 282.477 50.7229 282.477 43.9824C282.477 42.9722 282.311 41.9969 282.041 41.0563C285.743 40.5774 288.982 38.9314 291.203 36.554C293.572 37.9735 296.463 38.8269 299.589 38.8269C307.584 38.8269 314.063 33.3579 314.063 26.6175C314.063 25.137 313.732 23.7262 313.157 22.4112C314.786 21.4272 316.127 20.1209 317.033 18.5533C317.912 18.9888 318.861 19.3545 319.88 19.6158C326.699 21.3662 333.849 18.2921 335.852 12.7447C337.872 7.18861 333.971 1.27548 327.143 -0.474948Z" fill="url(#paint2_linear_550_2305)"/>
<path d="M185.794 88.3354L177.686 112.859L172.33 96.6434L164.972 130.729L198.012 125.286L185.794 88.3354Z" fill="#CC691E"/>
<path d="M280.57 116.856L276.102 130.363L267.959 105.726L256.438 140.587H290.454L280.57 116.856Z" fill="#CC691E"/>
<path d="M204.674 112.223C203.89 112.223 203.107 112.232 202.323 112.249C186.264 112.632 170.597 117.291 156.655 125.251L67 176.449H306.626V173.488L274.125 140.988C255.707 122.569 230.722 112.223 204.674 112.223Z" fill="#FEC956"/>
<path d="M204.674 112.223C203.89 112.223 203.107 112.232 202.323 112.249C186.264 112.632 170.597 117.291 156.655 125.251L67 176.449H306.626V173.488L274.125 140.988C255.707 122.569 230.722 112.223 204.674 112.223Z" fill="url(#paint3_linear_550_2305)"/>
<path d="M297.586 115.82C265.774 146.178 211.458 153.493 176.929 154.869C167.741 155.235 158.614 156.471 149.688 158.64L76.292 176.449H401.933L336.252 115.341C332.22 111.587 327.169 109.105 321.726 108.208C312.922 106.763 304.039 109.663 297.586 115.82Z" fill="#CE4C52"/>
<path d="M297.586 115.82C265.774 146.178 211.458 153.493 176.929 154.869C167.741 155.235 158.614 156.471 149.688 158.64L76.292 176.449H401.933L336.252 115.341C332.22 111.587 327.169 109.105 321.726 108.208C312.922 106.763 304.039 109.663 297.586 115.82Z" fill="url(#paint4_linear_550_2305)"/>
<path d="M183.138 190.322C187.945 187.5 191.594 183.781 186.543 180.333C185.785 179.819 185.811 178.704 186.604 178.234C190.018 176.222 196.584 171.459 194.32 165.668C194.32 165.668 193.109 162.802 187.64 162.585C186.769 162.55 186.151 161.723 186.351 160.878C187.327 156.715 189.138 146.23 183.669 143.313C181.135 141.963 177.991 142.877 176.363 145.237C175.204 146.927 173.985 149.487 173.628 153.058C173.628 153.058 173.907 155.496 170.632 152.744C167.358 149.992 163.814 150.645 162.62 156.045C161.427 161.444 161.157 166.991 159.111 167.801C157.064 168.611 153.537 166.547 151.352 170.414C149.645 173.436 151.848 182.266 162.089 189.442C168.325 193.822 176.546 194.188 183.138 190.322Z" fill="#EB7D41"/>
</g>
<defs>
<linearGradient id="paint0_linear_550_2305" x1="232.794" y1="65.5036" x2="234.73" y2="120.465" gradientUnits="userSpaceOnUse">
<stop offset="0.4372" stop-color="#FFF459" stop-opacity="0.53"/>
<stop offset="0.9596" stop-color="#FFF459" stop-opacity="0"/>
</linearGradient>
<linearGradient id="paint1_linear_550_2305" x1="285.983" y1="7.61662" x2="298.319" y2="95.955" gradientUnits="userSpaceOnUse">
<stop stop-color="#040006"/>
<stop offset="1" stop-color="#040006" stop-opacity="0"/>
</linearGradient>
<linearGradient id="paint2_linear_550_2305" x1="197.429" y1="48.5012" x2="272.636" y2="2.34237" gradientUnits="userSpaceOnUse">
<stop offset="0.4372" stop-color="#FFF459" stop-opacity="0.53"/>
<stop offset="0.9596" stop-color="#FFF459" stop-opacity="0"/>
</linearGradient>
<linearGradient id="paint3_linear_550_2305" x1="183.823" y1="97.9816" x2="185.371" y2="137.848" gradientUnits="userSpaceOnUse">
<stop offset="0.4372" stop-color="#FFE9B1" stop-opacity="0.53"/>
<stop offset="0.9596" stop-color="#FFE9B1" stop-opacity="0"/>
</linearGradient>
<linearGradient id="paint4_linear_550_2305" x1="226.361" y1="115.446" x2="237.198" y2="167.31" gradientUnits="userSpaceOnUse">
<stop offset="0.4372" stop-color="#FFF459" stop-opacity="0.53"/>
<stop offset="0.9596" stop-color="#FFF459" stop-opacity="0"/>
</linearGradient>
<clipPath id="clip0_550_2305">
<rect width="319" height="150" fill="white"/>
</clipPath>
</defs>
</svg>
