<svg width="319" height="150" viewBox="0 0 319 150" fill="none" xmlns="http://www.w3.org/2000/svg">
<g clip-path="url(#clip0_550_2341)">
<rect width="319" height="150" fill="#56DA89"/>
<path d="M279.954 48.061C280.905 42.1983 276.924 36.6743 271.061 35.7228C265.198 34.7713 259.674 38.7526 258.723 44.6153C257.771 50.4781 261.753 56.002 267.615 56.9535C273.478 57.905 279.002 53.9237 279.954 48.061Z" fill="#FBAD82"/>
<path d="M179.301 51.7562C179.752 51.7132 180.203 51.7132 180.64 51.749C181.106 48.2622 183.905 45.4125 187.557 45.0402C190.8 44.7109 193.771 46.4292 195.21 49.1428C195.397 49.1142 195.59 49.0855 195.783 49.0641C200.401 48.5987 204.518 51.9638 204.984 56.5747C205.413 60.8492 202.564 64.694 198.475 65.6105L198.468 65.6749H198.16C197.931 65.7179 197.702 65.7537 197.473 65.7751C196.664 65.8539 180.712 65.6964 180.712 65.6964C176.86 66.083 173.423 63.2764 173.036 59.4315C172.643 55.5867 175.449 52.1428 179.301 51.7562Z" fill="url(#paint0_linear_550_2341)"/>
<path d="M273.235 68.9365C271.953 66.0582 269.97 63.5451 267.471 61.6263C264.457 61.7766 261.822 63.7456 260.834 66.6239L252.672 90.5019C251.727 93.2728 247.982 93.7024 246.428 91.2179C244.688 88.4327 241.603 86.7788 238.323 86.8791C234.922 86.9793 231.858 88.9483 230.34 91.9912L223.925 107.234L208.617 91.9268C205.968 89.2776 202.374 87.7884 198.629 87.7884C196.51 87.7884 194.484 88.6332 192.98 90.1296C189.858 93.2513 184.803 93.2513 181.689 90.1296L174.071 82.5115C171.744 80.1846 168.579 78.8744 165.286 78.8744C161.14 78.8744 157.274 80.9364 154.968 84.3803L106.417 153.194L310.051 149.807L273.235 68.9365Z" fill="#F6E6A4"/>
<path d="M184.323 101.242C184.202 101.242 184.08 101.242 183.958 101.242C167.283 101.32 151.317 107.993 139.288 119.535L83.4556 173.084H262.552C259.165 132.845 225.435 101.242 184.323 101.242Z" fill="#ADB010"/>
<path d="M184.323 101.242C184.202 101.242 184.08 101.242 183.958 101.242C167.283 101.32 151.317 107.993 139.288 119.535L83.4556 173.084H262.552C259.165 132.845 225.435 101.242 184.323 101.242Z" fill="url(#paint1_linear_550_2341)"/>
<path d="M217.997 67.0452C219.014 65.3555 219.408 63.3937 219.25 61.4247C219.229 61.1527 219.214 60.8734 219.214 60.5942C219.214 55.2959 223.073 51 227.835 51C232.596 51 236.455 55.2959 236.455 60.5942C236.455 60.8734 236.441 61.1527 236.419 61.4247C236.262 63.3937 236.656 65.3483 237.672 67.0452C238.925 69.1359 239.656 71.6418 239.656 74.3411C239.656 81.6083 234.357 87.5009 227.828 87.5009C221.291 87.5009 216 81.6083 216 74.3411C216.014 71.6418 216.744 69.1359 217.997 67.0452Z" fill="#CACB68"/>
<path d="M217.997 67.0452C219.014 65.3555 219.408 63.3937 219.25 61.4247C219.229 61.1527 219.214 60.8734 219.214 60.5942C219.214 55.2959 223.073 51 227.835 51C232.596 51 236.455 55.2959 236.455 60.5942C236.455 60.8734 236.441 61.1527 236.419 61.4247C236.262 63.3937 236.656 65.3483 237.672 67.0452C238.925 69.1359 239.656 71.6418 239.656 74.3411C239.656 81.6083 234.357 87.5009 227.828 87.5009C221.291 87.5009 216 81.6083 216 74.3411C216.014 71.6418 216.744 69.1359 217.997 67.0452Z" fill="url(#paint2_linear_550_2341)"/>
<path d="M233.233 73.5464C233.147 73.4963 233.054 73.4677 232.954 73.4677C232.768 73.4677 232.596 73.5607 232.496 73.7254L229.281 79.0022L228.372 80.4915V78.7445V59.8067C228.372 59.5131 228.135 59.2769 227.842 59.2769C227.548 59.2769 227.312 59.5131 227.312 59.8067V66.6515V68.3985L226.403 66.9093L225.415 65.284C225.314 65.1264 225.15 65.0262 224.956 65.0262C224.856 65.0262 224.763 65.0549 224.677 65.105C224.426 65.2553 224.348 65.5847 224.498 65.8353L227.197 70.2672L227.226 70.3102L227.305 70.4319V70.5751V78.6013V80.3483L226.395 78.859L223.267 73.7183C223.166 73.5608 223.002 73.4605 222.808 73.4605C222.708 73.4605 222.615 73.4892 222.529 73.5393C222.278 73.6896 222.2 74.019 222.35 74.2696L227.061 81.995C227.083 82.0308 227.111 82.0738 227.147 82.1024L227.298 82.2456V82.4533V106.747H228.364V82.532V82.2886L228.558 82.1382C228.622 82.0881 228.665 82.0452 228.694 82.0022L233.405 74.2767C233.562 74.0261 233.484 73.6968 233.233 73.5464Z" fill="#4B766F"/>
<path d="M205.874 97.0536C206.182 96.5381 206.304 95.9367 206.261 95.3352C206.254 95.2493 206.254 95.1705 206.254 95.0846C206.254 93.4665 207.435 92.1562 208.889 92.1562C210.342 92.1562 211.523 93.4665 211.523 95.0846C211.523 95.1705 211.523 95.2565 211.516 95.3352C211.466 95.9367 211.588 96.5309 211.903 97.0536C212.289 97.6908 212.511 98.4569 212.511 99.2803C212.511 101.5 210.893 103.297 208.896 103.297C206.898 103.297 205.28 101.5 205.28 99.2803C205.266 98.4569 205.488 97.6908 205.874 97.0536Z" fill="#CACB68"/>
<path d="M210.529 99.0371C210.5 99.0228 210.472 99.0156 210.443 99.0156C210.386 99.0156 210.336 99.0442 210.307 99.0944L209.326 100.705L209.047 101.164V100.634V94.8486C209.047 94.7555 208.975 94.6839 208.882 94.6839C208.789 94.6839 208.718 94.7555 208.718 94.8486V96.9393V97.4691L208.438 97.0108L208.138 96.5168C208.109 96.4667 208.059 96.4381 208.002 96.4381C207.973 96.4381 207.944 96.4452 207.916 96.4595C207.837 96.5097 207.816 96.6099 207.859 96.6815L208.682 98.0347L208.689 98.049L208.711 98.0848V98.1278V100.576V101.106L208.431 100.648L207.472 99.08C207.443 99.0299 207.393 99.0013 207.336 99.0013C207.307 99.0013 207.279 99.0084 207.25 99.0228C207.171 99.0729 207.15 99.1731 207.193 99.2447L208.632 101.607C208.639 101.622 208.646 101.629 208.66 101.643L208.703 101.686V101.751V109.168H209.026V101.772V101.701L209.083 101.658C209.104 101.643 209.119 101.629 209.126 101.615L210.565 99.2519C210.629 99.1874 210.601 99.0872 210.529 99.0371Z" fill="#4B766F"/>
<path d="M148.273 103.29C149.054 101.994 149.354 100.497 149.233 98.9936C149.218 98.786 149.211 98.5712 149.211 98.3564C149.211 94.3039 152.161 91.0176 155.805 91.0176C159.45 91.0176 162.4 94.3039 162.4 98.3564C162.4 98.5712 162.392 98.7789 162.378 98.9936C162.256 100.497 162.557 101.994 163.338 103.29C164.297 104.886 164.855 106.805 164.855 108.874C164.855 114.43 160.803 118.941 155.805 118.941C150.808 118.941 146.755 114.437 146.755 108.874C146.755 106.812 147.314 104.893 148.273 103.29Z" fill="#CACB68"/>
<path d="M148.273 103.29C149.054 101.994 149.354 100.497 149.233 98.9936C149.218 98.786 149.211 98.5712 149.211 98.3564C149.211 94.3039 152.161 91.0176 155.805 91.0176C159.45 91.0176 162.4 94.3039 162.4 98.3564C162.4 98.5712 162.392 98.7789 162.378 98.9936C162.256 100.497 162.557 101.994 163.338 103.29C164.297 104.886 164.855 106.805 164.855 108.874C164.855 114.43 160.803 118.941 155.805 118.941C150.808 118.941 146.755 114.437 146.755 108.874C146.755 106.812 147.314 104.893 148.273 103.29Z" fill="url(#paint3_linear_550_2341)"/>
<path d="M159.929 108.266C159.864 108.23 159.793 108.209 159.714 108.209C159.571 108.209 159.442 108.28 159.363 108.402L156.9 112.44L156.206 113.579V112.247V97.7624C156.206 97.5405 156.019 97.3543 155.797 97.3543C155.576 97.3543 155.389 97.5405 155.389 97.7624V102.996V104.328L154.695 103.19L153.936 101.944C153.864 101.822 153.728 101.75 153.585 101.75C153.513 101.75 153.435 101.772 153.37 101.808C153.177 101.922 153.12 102.173 153.234 102.366L155.303 105.753L155.325 105.789L155.382 105.882V105.989V112.132V113.464L154.688 112.326L152.289 108.395C152.218 108.273 152.082 108.201 151.938 108.201C151.867 108.201 151.788 108.223 151.724 108.259C151.53 108.373 151.473 108.624 151.587 108.817L155.189 114.731C155.21 114.76 155.232 114.789 155.253 114.817L155.368 114.925V115.082V133.662H156.184V115.132V114.946L156.327 114.831C156.377 114.796 156.406 114.76 156.428 114.724L160.029 108.81C160.179 108.631 160.122 108.38 159.929 108.266Z" fill="#146357"/>
<path d="M273.457 73.8481C268.416 73.8481 263.512 75.7383 259.932 79.2896C259.91 79.311 259.889 79.3325 259.867 79.354L248.92 90.3014C243.299 95.9219 235.674 99.0293 227.727 99.0507C219.836 99.0722 212.269 102.215 206.684 107.8L195.414 119.07C189.815 124.669 182.219 127.819 174.3 127.819H160.245C153.715 127.819 147.307 129.537 141.658 132.809L72 173.084H367.523L295.359 81.3874C291.614 76.6261 285.886 73.8481 279.829 73.8481H273.457Z" fill="#D3D265"/>
<path d="M273.457 73.8481C268.416 73.8481 263.512 75.7383 259.932 79.2896C259.91 79.311 259.889 79.3325 259.867 79.354L248.92 90.3014C243.299 95.9219 235.674 99.0293 227.727 99.0507C219.836 99.0722 212.269 102.215 206.684 107.8L195.414 119.07C189.815 124.669 182.219 127.819 174.3 127.819H160.245C153.715 127.819 147.307 129.537 141.658 132.809L72 173.084H367.523L295.359 81.3874C291.614 76.6261 285.886 73.8481 279.829 73.8481H273.457Z" fill="#D3D265"/>
<path d="M159.83 165.229H183.135C190.145 165.229 196.839 162.408 201.808 157.468C206.741 152.556 213.421 149.8 220.388 149.8H258.65C264.507 149.8 270.342 150.552 276.013 152.041L356.275 173.091H125.67L141.2 168.136C147.222 166.21 153.508 165.229 159.83 165.229Z" fill="#ADB010"/>
<path d="M145.317 157.552C145.317 157.552 141.723 150.364 147.672 147.893C147.672 147.893 151.338 146.39 154.825 149.49V146.733C154.689 136.166 165.952 127.545 173.04 131.576C180.135 135.607 175.403 145.803 175.403 145.803C179.856 141.399 184.717 143.397 184.717 143.397C192.085 146.454 187.639 155.354 187.639 155.354C200.569 151.459 199.596 166.76 199.596 166.76H171.808H154.811H135.665C135.665 166.767 134.878 154.409 145.317 157.552Z" fill="#6E700A"/>
<path d="M263.955 127.88C263.933 126.942 263.733 125.954 263.081 125.288C262.602 124.794 261.929 124.529 261.263 124.379C259.365 123.949 257.289 124.35 255.685 125.453C254.726 126.111 253.809 127.056 252.642 127.035C251.117 127.014 250.194 125.424 249.399 124.121C247.845 121.586 245.225 119.288 242.268 119.589C240.471 119.768 238.845 120.935 237.907 122.474C236.969 124.014 236.676 125.897 236.869 127.694C237.02 129.054 237.435 130.393 237.456 131.761C237.492 134.309 236.175 136.658 235.502 139.121C234.829 141.584 235.086 144.727 237.306 145.987C239.347 147.147 242.053 146.13 244.179 147.126C244.53 147.29 244.895 147.584 244.86 147.97C244.817 148.45 244.23 148.622 243.764 148.744C240.349 149.603 238.158 153.713 239.354 157.028C240.392 159.913 243.306 161.624 246.062 162.977C249.879 164.86 253.852 166.55 258.055 167.202C262.258 167.86 266.754 167.417 270.42 165.254C274.022 163.128 276.542 159.548 278.418 155.81C279.571 153.512 280.544 151.013 280.387 148.45C280.229 145.887 278.683 143.252 276.213 142.543C273.535 141.77 270.807 143.352 268.057 143.775C268.752 142.328 268.494 140.481 267.435 139.278C266.454 138.161 264.879 137.696 263.439 137.99C262.365 138.204 260.626 139.393 260.475 137.581C260.361 136.178 261.964 134.567 262.552 133.4C263.411 131.689 264.005 129.82 263.955 127.88Z" fill="#6E700A"/>
<path d="M268.537 163.543L268.523 163.529C267.184 162.132 265.867 160.672 264.585 159.19C263.704 158.166 262.831 157.135 261.979 156.097C262.043 156.047 262.101 155.989 262.165 155.932C262.323 155.782 262.473 155.617 262.602 155.445C262.874 155.101 263.096 154.729 263.289 154.328C263.669 153.541 264.005 152.724 264.299 151.887C264.585 151.049 264.814 150.175 264.95 149.28C265.093 148.393 265.144 147.462 265.022 146.545C264.986 146.273 264.786 146.037 264.499 145.973C264.134 145.887 263.769 146.116 263.683 146.481L263.676 146.502C263.49 147.283 263.26 148.035 262.996 148.794C262.86 149.166 262.716 149.545 262.566 149.918C262.408 150.29 262.251 150.662 262.093 151.035C261.771 151.779 261.428 152.517 261.062 153.254C260.883 153.626 260.726 154.006 260.611 154.414C258.234 151.443 255.907 148.436 253.731 145.314C252.85 144.061 251.977 142.801 251.117 141.541C251.132 141.519 251.153 141.498 251.167 141.476C251.325 141.283 251.447 141.09 251.568 140.896C251.798 140.502 251.977 140.094 252.12 139.679C252.392 138.841 252.621 138.004 252.793 137.145C252.972 136.293 253.108 135.426 253.187 134.56C253.272 133.693 253.294 132.813 253.23 131.939C253.215 131.71 253.051 131.51 252.821 131.452C252.528 131.381 252.234 131.553 252.163 131.846V131.853L251.547 134.288C251.339 135.09 251.117 135.892 250.895 136.693C250.659 137.488 250.43 138.283 250.179 139.063C250.101 139.321 250.036 139.586 249.972 139.851C249.148 138.612 248.339 137.359 247.552 136.099C247.523 135.899 247.416 135.727 247.251 135.619C247.237 135.598 247.222 135.577 247.208 135.555C245.103 132.254 243.163 128.846 241.222 125.438L241.215 125.424C241.072 125.173 240.764 125.08 240.506 125.216C240.242 125.352 240.141 125.674 240.277 125.939L241.631 128.574C242.089 129.448 242.526 130.336 243.02 131.188C243.807 132.569 244.573 133.966 245.389 135.333C245.175 135.29 244.967 135.24 244.752 135.183C244.387 135.09 244.022 134.982 243.657 134.875C243.292 134.76 242.927 134.646 242.576 134.517H242.569C242.268 134.409 241.931 134.56 241.817 134.861C241.695 135.168 241.845 135.512 242.153 135.634C242.533 135.784 242.898 135.913 243.277 136.042C243.657 136.171 244.036 136.292 244.423 136.407C244.81 136.522 245.203 136.622 245.604 136.708C245.826 136.751 246.048 136.794 246.284 136.822C246.693 137.503 247.101 138.183 247.53 138.849L249.141 141.333C249.671 142.171 250.237 142.98 250.788 143.796C251.354 144.605 251.883 145.436 252.478 146.23L253.208 147.24C252.793 147.19 252.385 147.168 251.969 147.125L251.16 147.075L250.344 147.039C249.8 147.025 249.256 147.011 248.705 147.032H248.69C248.432 147.047 248.189 147.204 248.082 147.462C247.938 147.813 248.11 148.214 248.461 148.357C248.991 148.572 249.535 148.729 250.072 148.865C250.616 149.001 251.167 149.109 251.712 149.195C252.263 149.266 252.814 149.366 253.366 149.381C253.809 149.395 254.253 149.374 254.712 149.295L256 150.985C256.595 151.779 257.218 152.538 257.833 153.311C258.442 154.092 259.079 154.844 259.716 155.603C262.265 158.631 264.893 161.567 267.786 164.302C267.993 164.495 268.322 164.495 268.523 164.302C268.731 164.101 268.738 163.758 268.537 163.543Z" fill="#CACB68"/>
<path d="M156.501 43.7268C159.265 46.9416 165.129 46.4261 165.129 46.4261C165.129 46.4261 166.511 40.7054 163.747 37.4906C160.983 34.2758 155.119 34.7913 155.119 34.7913C155.119 34.7913 153.738 40.512 156.501 43.7268Z" fill="#CACB68"/>
</g>
<defs>
<linearGradient id="paint0_linear_550_2341" x1="189.751" y1="41.2137" x2="188.16" y2="77.4903" gradientUnits="userSpaceOnUse">
<stop stop-color="white"/>
<stop offset="1" stop-color="white" stop-opacity="0"/>
</linearGradient>
<linearGradient id="paint1_linear_550_2341" x1="169.417" y1="88.8098" x2="171.114" y2="128.693" gradientUnits="userSpaceOnUse">
<stop offset="0.4372" stop-color="#FFF459" stop-opacity="0.53"/>
<stop offset="0.9596" stop-color="#FFF459" stop-opacity="0"/>
</linearGradient>
<linearGradient id="paint2_linear_550_2341" x1="227.252" y1="50.7411" x2="227.889" y2="76.1984" gradientUnits="userSpaceOnUse">
<stop offset="0.4372" stop-color="#FFF459" stop-opacity="0.53"/>
<stop offset="0.9596" stop-color="#FFF459" stop-opacity="0"/>
</linearGradient>
<linearGradient id="paint3_linear_550_2341" x1="155.805" y1="87.6496" x2="155.805" y2="110.243" gradientUnits="userSpaceOnUse">
<stop offset="0.4372" stop-color="#FFF459" stop-opacity="0.53"/>
<stop offset="0.9596" stop-color="#FFF459" stop-opacity="0"/>
</linearGradient>
<clipPath id="clip0_550_2341">
<rect width="319" height="150" fill="white"/>
</clipPath>
</defs>
</svg>
