<svg width="319" height="150" viewBox="0 0 319 150" fill="none" xmlns="http://www.w3.org/2000/svg">
<g clip-path="url(#clip0_548_2183)">
<rect width="319" height="150" fill="#8E97FD"/>
<path opacity="0.22" d="M282.588 -36.9998C282.349 -36.9998 282.125 -36.9914 281.902 -36.9914C281.599 -36.9914 281.28 -36.9998 280.977 -36.9998C260.582 -36.9499 242.881 -30.249 235.466 -20.9128C232.723 -17.6288 231.176 -14.0124 231.176 -10.2047C231.176 -1.13447 239.835 6.88826 253.071 11.7351C243.248 13.5143 236.184 18.3612 236.184 24.0893C236.184 28.1214 239.676 31.7213 245.177 34.1239C232.739 34.6394 222.932 40.0516 222.932 46.6693C222.932 47.8415 223.267 48.9722 223.841 50.053C221.927 49.8451 219.934 49.7371 217.909 49.7371C203.238 49.7371 191.135 55.3821 189.062 62.7314C186.813 62.4154 184.453 62.2325 182.013 62.2325C175.348 62.2325 169.256 63.4962 164.552 65.5746C157.822 60.0627 146.022 56.388 132.547 56.388C128.401 56.388 124.414 56.7455 120.683 57.3857C122.006 55.3405 122.405 53.0875 121.464 50.7098C119.79 46.4781 113.89 43.003 106.203 41.3901C101.451 40.3925 96.9066 40.3093 92.7286 40.7333C93.9246 39.4031 94.6262 37.9233 94.6262 36.3603C94.6262 31.0645 86.9559 26.7081 77.085 26.1345C78.6 24.0228 79.4611 21.7448 79.4611 19.3588C79.4611 8.96668 63.7697 0.511648 44.0757 0.0128261C48.4132 -2.3732 51.0922 -5.59061 51.0922 -9.13224C51.0922 -16.4899 39.6585 -22.4508 25.5458 -22.4508C11.4332 -22.4508 -0.000488281 -16.4899 -0.000488281 -9.13224V150H334V-10.1964C333.984 -24.9948 310.973 -36.9998 282.588 -36.9998Z" fill="url(#paint0_linear_548_2183)"/>
<path d="M291.826 79.4452L269.261 89.9757L211.613 63.9861C202.33 59.7972 191.483 61.152 183.513 67.4935L179.847 70.4108L71.9995 168.302H424.408L318.937 82.1381C316.918 80.4841 314.624 79.2125 312.155 78.3647C305.49 76.0791 298.209 76.4698 291.826 79.4452Z" fill="#A5C0EA"/>
<path d="M312.146 78.3652C305.489 76.0796 298.208 76.4702 291.825 79.4457L269.26 89.9762L211.613 63.9866C207.008 61.9088 202.021 61.2023 197.192 61.7841L215.702 87.0423L209.792 93.176L259.935 139.969L307.808 108.253L296.48 99.9498L314.274 79.0966L312.146 78.3652Z" fill="#92B3EA"/>
<path d="M291.826 79.4452L269.261 89.9757L211.613 63.9861C202.33 59.7972 191.483 61.152 183.513 67.4935L179.847 70.4108L71.9995 168.302H424.408L318.937 82.1381C316.918 80.4841 314.624 79.2125 312.155 78.3647C305.49 76.0791 298.209 76.4698 291.826 79.4452Z" fill="url(#paint1_linear_548_2183)"/>
<path d="M273.6 121.592L224.995 103.415C213.251 99.0186 200.352 98.7942 188.45 102.767C182.757 104.67 177.404 107.496 172.625 111.137L97.4907 168.302H387.465L337.663 138.896C323.359 130.452 307.186 125.681 290.588 125.016C284.787 124.784 279.052 123.628 273.6 121.592Z" fill="white"/>
<path d="M290.595 125.016C284.786 124.784 279.051 123.628 273.599 121.592L224.994 103.415C220.298 101.662 215.419 100.581 210.499 100.157L204.989 113.189C203.102 117.644 203.925 122.781 207.091 126.429L243.437 168.294H387.472L337.671 138.888C323.367 130.452 307.193 125.681 290.595 125.016Z" fill="#CEE0FF"/>
<path d="M273.6 121.592L224.995 103.415C213.251 99.0186 200.352 98.7942 188.45 102.767C182.757 104.67 177.404 107.496 172.625 111.137L97.4907 168.302H387.465L337.663 138.896C323.36 130.452 307.186 125.681 290.588 125.016C284.787 124.784 279.052 123.628 273.6 121.592Z" fill="url(#paint2_linear_548_2183)"/>
<path d="M170.622 168.501L187.536 126.022L208.372 168.501H170.622Z" fill="#2F497C"/>
<path d="M195.265 168.501L213.034 118.417L233.023 168.501H195.265Z" fill="#2F497C"/>
<path d="M200.709 120.952L191.533 139.22H196.121L181.692 168.501H218.096L208.255 144.73L214.489 146.625L200.709 120.952Z" fill="#627BB3"/>
<path d="M177.886 120.952L168.702 139.22H173.298L158.87 168.501H195.265L185.433 144.73L191.658 146.625L177.886 120.952Z" fill="#496AAA"/>
<path d="M240.254 129.188L232.657 144.298H236.456L224.529 168.501H254.624L246.487 148.845L251.64 150.416L240.254 129.188Z" fill="#2F79AA"/>
<path d="M224.097 129.188L216.508 144.298H220.298L208.372 168.501H238.467L230.33 148.845L235.483 150.416L224.097 129.188Z" fill="#496AAA"/>
<path d="M289.89 149.992L302.066 119.432L317.051 149.992H289.89Z" fill="#2F497C"/>
<path d="M307.626 149.992L320.409 113.963L334.787 149.992H307.626Z" fill="#2F497C"/>
<path d="M311.541 115.783L304.933 128.931H308.241L297.86 149.992H324.049L316.968 132.887L321.448 134.259L311.541 115.783Z" fill="#627BB3"/>
<path d="M295.117 115.783L288.509 128.931H291.817L281.437 149.992H307.626L300.544 132.887L305.032 134.259L295.117 115.783Z" fill="#496AAA"/>
<path d="M328.362 121.709L322.901 132.58H325.635L317.05 149.992H338.701L332.85 135.855L336.557 136.985L328.362 121.709Z" fill="#496AAA"/>
</g>
<defs>
<linearGradient id="paint0_linear_548_2183" x1="163.133" y1="-75.7637" x2="164.523" y2="117.28" gradientUnits="userSpaceOnUse">
<stop stop-color="white"/>
<stop offset="1" stop-color="white" stop-opacity="0"/>
</linearGradient>
<linearGradient id="paint1_linear_548_2183" x1="248.204" y1="42.8716" x2="248.927" y2="115.372" gradientUnits="userSpaceOnUse">
<stop stop-color="#5B5FB3" stop-opacity="0.53"/>
<stop offset="0.9596" stop-color="#7E5AFF" stop-opacity="0"/>
</linearGradient>
<linearGradient id="paint2_linear_548_2183" x1="238.85" y1="168.302" x2="242.478" y2="96.1461" gradientUnits="userSpaceOnUse">
<stop offset="0.4372" stop-color="#4198F4" stop-opacity="0.53"/>
<stop offset="0.9596" stop-color="#4AA2FF" stop-opacity="0"/>
</linearGradient>
<clipPath id="clip0_548_2183">
<rect width="319" height="150" fill="white"/>
</clipPath>
</defs>
</svg>
